<?xml version="1.0" encoding="UTF-8"?>
<svg width="32" height="32" viewBox="0 0 32 32" fill="none" xmlns="http://www.w3.org/2000/svg">
  <!-- Background circle with gradient -->
  <circle cx="16" cy="16" r="16" fill="url(#gradient)"/>
  
  <!-- Tech circuit lines -->
  <path d="M8 16h4M20 16h4M16 8v4M16 20v4" stroke="white" stroke-width="1.5" stroke-linecap="round"/>
  <circle cx="16" cy="16" r="2" fill="white"/>
  
  <!-- Letters JR -->
  <path d="M11 12h2l1 4 1-4h2l-2 8h-2l-2-8z" fill="white"/>
  <path d="M19 12c1.5 0 2.5 1 2.5 2.5 0 1-.5 1.8-1.5 2.2l1.5 3.3h-2l-1.5-3h-1v3h-2v-8h3.5zM19 14h-1.5v-1h1.5c.5 0 1 .3 1 1s-.5 1-1 1z" fill="white"/>
  
  <!-- Gradient definition -->
  <defs>
    <linearGradient id="gradient" x1="0" y1="0" x2="32" y2="32" gradientUnits="userSpaceOnUse">
      <stop offset="0%" stop-color="#1E40AF"/>
      <stop offset="100%" stop-color="#3B82F6"/>
    </linearGradient>
  </defs>
</svg> 